<?xml version="1.0" encoding="UTF-8"?>
<svg version="1.1" xmlns="http://www.w3.org/2000/svg" width="148" height="148">
<path d="M0 0 C48.84 0 97.68 0 148 0 C148 48.84 148 97.68 148 148 C99.16 148 50.32 148 0 148 C0 99.16 0 50.32 0 0 Z " fill="#FEFDFD" transform="translate(0,0)"/>
<path d="M0 0 C18.81 -0.0309375 18.81 -0.0309375 38 -0.0625 C41.94710937 -0.071604 45.89421875 -0.08070801 49.9609375 -0.09008789 C54.8125 -0.09460449 54.8125 -0.09460449 57.08984375 -0.09544373 C58.66699506 -0.09697075 60.24414527 -0.10046991 61.82128906 -0.10557556 C64.22202557 -0.11295317 66.62269126 -0.11390405 69.0234375 -0.11352539 C69.71601654 -0.1171235 70.40859558 -0.12072161 71.12216187 -0.12442875 C75.83627301 -0.11455323 80.34213442 0.34430766 85 1 C81.125 7.875 81.125 7.875 80 9 C78.57024587 9.17895301 77.13309493 9.29964855 75.6953125 9.39453125 C61.42509706 10.36545758 61.42509706 10.36545758 48 15 C46.84371094 15.556875 46.84371094 15.556875 45.6640625 16.125 C30.66777576 23.90464364 21.03005163 35.7324468 14.5625 51.25 C9.97082591 66.29717438 11.69014785 84.11892991 18.5078125 98.08984375 C26.93237985 113.62631331 40.06240346 124.69481311 56.89453125 130.19140625 C74.23250995 134.25148212 93.09819831 131.05909071 108.28613281 122.10253906 C121.90699201 113.34017437 131.52790176 98.77786037 135 83 C136.6627768 64.02907054 134.7549307 48.51545663 123 33 C122.26910156 32.28070313 121.53820312 31.56140625 120.78515625 30.8203125 C119 29 119 29 119 27 C118.12214844 26.59201172 118.12214844 26.59201172 117.2265625 26.17578125 C115.03850838 25.02033513 113.29721302 23.73753986 111.375 22.1875 C107.5358355 19.21431246 103.5633936 17.25666634 99.1015625 15.37109375 C96.34263572 13.57112479 95.84227721 12.15159768 95 9 C94.875 6.1875 94.875 6.1875 95 4 C112.00760552 8.20578531 126.17091172 18.4989502 136 33 C144.35536184 47.05003684 148.19654423 60.94457378 148.11352539 77.27368164 C148.11364593 78.05782912 148.11376646 78.8419766 148.11389065 79.64988613 C148.11315252 82.15333978 148.1055752 84.65671616 148.09765625 87.16015625 C148.09618341 88.71968551 148.09516481 90.27921526 148.09460449 91.83874512 C148.08939119 97.58000435 148.07542996 103.32125296 148.0625 109.0625 C148.041875 121.911875 148.02125 134.76125 148 148 C99.16 148 50.32 148 0 148 C0 99.16 0 50.32 0 0 Z " fill="#CB2126" transform="translate(0,0)"/>
<path d="M0 0 C0.66 0 1.32 0 2 0 C5.47100764 14.1075935 8.76595499 28.24627537 11.875 42.4375 C12.0317923 43.1500293 12.18858459 43.86255859 12.35012817 44.59667969 C12.79583826 46.62511001 13.23839791 48.65419768 13.6796875 50.68359375 C13.93476074 51.85462646 14.18983398 53.02565918 14.45263672 54.23217773 C15 57 15 57 15 59 C-4.65369218 55.21944408 -4.65369218 55.21944408 -12.9921875 52.79296875 C-20.2490841 50.87978692 -27.64876514 49.50071841 -35 48 C-33.56503929 43.67943524 -31.41188293 40.85873858 -28.4375 37.4375 C-22.01946073 29.92552927 -16.18408959 22.02093228 -10.39453125 14.01953125 C-9.76256836 13.15078369 -9.13060547 12.28203613 -8.47949219 11.38696289 C-7.21260698 9.64426968 -5.95142202 7.89741671 -4.69628906 6.14624023 C-4.11717773 5.35032471 -3.53806641 4.55440918 -2.94140625 3.734375 C-2.42263916 3.01475586 -1.90387207 2.29513672 -1.36938477 1.55371094 C-0.91748779 1.04098633 -0.46559082 0.52826172 0 0 Z " fill="#CB2026" transform="translate(85,19)"/>
<path d="M0 0 C0.33 0 0.66 0 1 0 C1 22.77 1 45.54 1 69 C-21.77 69 -44.54 69 -68 69 C-68 68.67 -68 68.34 -68 68 C-67.20078125 67.90203125 -66.4015625 67.8040625 -65.578125 67.703125 C-44.03869139 64.77052606 -26.2577691 55.24921612 -12.8828125 37.8671875 C-5.38410534 26.44799444 -0.84056555 13.62295884 0 0 Z " fill="#FEFBFB" transform="translate(147,79)"/>
<path d="M0 0 C0.33 0 0.66 0 1 0 C1.14695313 0.98226562 1.14695313 0.98226562 1.296875 1.984375 C4.73598198 22.97478656 14.34512322 40.15908983 31.33984375 53.1875 C41.19369799 59.90143299 53.0559047 64.91417315 65 66 C65 66.33 65 66.66 65 67 C43.55 67 22.1 67 0 67 C0 44.89 0 22.78 0 0 Z " fill="#FEFCFC" transform="translate(0,81)"/>
<path d="M0 0 C21.45 0 42.9 0 65 0 C65 0.33 65 0.66 65 1 C64.11699219 1.15855469 63.23398437 1.31710938 62.32421875 1.48046875 C54.26283033 3.04772042 47.25320708 5.14844828 40 9 C39.15824219 9.44214844 38.31648438 9.88429688 37.44921875 10.33984375 C19.67705898 20.3176815 8.80681174 36.14737039 2.74609375 55.28515625 C1.85132709 58.54098257 1.30538189 61.64079923 1 65 C0.67 65 0.34 65 0 65 C0 43.55 0 22.1 0 0 Z " fill="#FEFCFC" transform="translate(0,0)"/>
</svg>
